<?xml version="1.0" encoding="UTF-8"?>
<svg xmlns="http://www.w3.org/2000/svg" width="84" height="42" viewBox="0 0 84 42" fill="none">
  <g clip-path="url(#clip0_1499_1202)">
    <path d="M1.11441 41.8544H0.378906V33.4395H2.59467C4.5005 33.4395 5.45804 34.5823 5.45804 35.9863C5.45804 37.3904 4.50513 38.5845 2.59467 38.5845H1.11441V41.8544ZM1.11441 34.1018V37.9268H2.67793C3.77425 37.9268 4.70403 37.2551 4.70403 35.991C4.70403 34.7269 3.77425 34.1018 2.67793 34.1018H1.11441Z" fill="white"></path>
    <path d="M9.55678 38.1874C9.55678 37.3804 8.93692 37.0585 8.2338 37.0585C7.57694 37.0585 7.05422 37.3337 6.61477 37.6369L6.26783 37.0819C6.62402 36.8066 7.36415 36.4102 8.28469 36.4102C9.53828 36.4102 10.2877 37.1192 10.2877 38.2154V41.8584H9.56141V41.196C9.26536 41.7231 8.54836 42.003 7.91462 42.003C6.77205 42.003 6.00879 41.3313 6.00879 40.3797C6.00879 39.4281 6.70266 38.8311 7.7851 38.8311H9.04794C9.41801 38.8311 9.56141 38.6398 9.56141 38.3506V38.1967L9.55678 38.1874ZM9.55678 39.9646V39.2322C9.42726 39.3862 9.14971 39.4375 8.87679 39.4375H7.90074C7.12823 39.4375 6.76742 39.8246 6.76742 40.3751C6.76742 40.8322 7.11436 41.3733 7.99789 41.3733C8.79815 41.3733 9.56141 40.9301 9.56141 39.9692L9.55678 39.9646Z" fill="white"></path>
    <path d="M14.589 37.2034H14.2328C13.303 37.2034 12.6369 37.6372 12.6369 38.8873V41.8586H11.9199V36.555H12.6092V37.4553C12.9052 36.7462 13.5621 36.457 14.1958 36.457C14.3161 36.457 14.4456 36.471 14.589 36.4804V37.2034Z" fill="white"></path>
    <path d="M16.713 34.3164V36.5507H18.0128V37.1618H16.713V40.7582C16.713 41.2527 17.0599 41.276 17.4624 41.276C17.7954 41.276 18.0128 41.2387 18.0128 41.2387V41.8497C18.0128 41.8497 17.6289 41.8964 17.2033 41.8964C16.6529 41.8964 15.9867 41.7518 15.9867 40.7675V37.1618H15.0801V36.5507H15.9867V34.3164H16.713Z" fill="white"></path>
    <path d="M23.846 36.4102C25.3586 36.4102 26.5752 37.5903 26.5752 39.2089C26.5752 40.8275 25.3586 41.9983 23.846 41.9983C22.3333 41.9983 21.126 40.8322 21.126 39.2089C21.126 37.5856 22.3426 36.4102 23.846 36.4102ZM23.846 37.0585C22.6756 37.0585 21.8661 37.9961 21.8661 39.2089C21.8661 40.4217 22.6756 41.3593 23.846 41.3593C25.0163 41.3593 25.835 40.4217 25.835 39.2089C25.835 37.9961 25.0255 37.0585 23.846 37.0585Z" fill="white"></path>
    <path d="M28.1843 34.6528C28.1843 33.6685 28.818 33.3887 29.3777 33.3887C29.757 33.3887 30.0947 33.4353 30.0947 33.4353V34.0744C30.0947 34.0744 29.7617 34.0137 29.572 34.0137C29.1094 34.0137 28.9151 34.205 28.9151 34.7367V36.5513H29.9883V37.1623H28.9151V41.8502H28.1889V37.1623H27.2822V36.5513H28.1889V34.6528H28.1843Z" fill="white"></path>
    <path d="M37.2142 40.4597C38.3244 40.4597 39.1709 39.858 39.4809 38.8598H41.3034C40.8131 40.8422 39.0969 41.9991 37.2142 41.9991C34.7579 41.9991 32.8613 40.1845 32.8613 37.647C32.8613 35.1094 34.7579 33.2949 37.2142 33.2949C39.0969 33.2949 40.8131 34.4471 41.3034 36.4342H39.4809C39.1709 35.436 38.3244 34.8342 37.2142 34.8342C35.6414 34.8342 34.5914 36.0377 34.5914 37.647C34.5914 39.2563 35.6414 40.4597 37.2142 40.4597Z" fill="white"></path>
    <path d="M43.7965 41.8544H42.2607V33.4395H43.7965V41.8544Z" fill="white"></path>
    <path d="M48.1589 38.1875C48.1589 37.791 47.849 37.5392 47.2523 37.5392C46.7018 37.5392 46.0125 37.8144 45.6055 38.0569L44.9995 36.8768C44.9995 36.8768 46.0125 36.2051 47.3355 36.2051C48.5752 36.2051 49.7086 36.7835 49.7086 38.2388V41.8586H48.1589V41.3408C47.8721 41.7746 47.2522 42.0032 46.6324 42.0032C45.4759 42.0032 44.7266 41.1729 44.7266 40.2726C44.7266 39.2277 45.4898 38.5794 46.7064 38.5794H47.7796C48.0433 38.5794 48.1589 38.4581 48.1589 38.2528V38.1922V38.1875ZM48.1589 39.8808V39.4843C48.0618 39.5822 47.8952 39.6056 47.6825 39.6056H47.0996C46.6093 39.6056 46.3271 39.8201 46.3271 40.2073C46.3271 40.5945 46.6231 40.8557 47.0996 40.8557C47.6593 40.8557 48.1589 40.5665 48.1589 39.8808Z" fill="white"></path>
    <path d="M54.3393 37.8893H53.6825C52.8961 37.8893 52.5399 38.2625 52.5399 39.2234V41.8542H50.9902V36.35H52.4936V37.227C52.7064 36.6392 53.2337 36.2754 53.9137 36.2754C54.0571 36.2754 54.2005 36.2894 54.3439 36.322V37.8847L54.3393 37.8893Z" fill="white"></path>
    <path d="M57.0824 41.8544H55.5328V37.6702H54.7695V36.3502H57.0824V41.8544ZM56.2359 33.4395C56.7956 33.4395 57.2397 33.8966 57.2397 34.447C57.2397 34.9974 56.8003 35.4452 56.2359 35.4452C55.6716 35.4452 55.246 35.0114 55.246 34.447C55.246 33.8826 55.6854 33.4395 56.2359 33.4395Z" fill="white"></path>
    <path d="M60.7411 40.1707L61.9808 36.3457H63.6137L61.6709 41.8499H59.7512L57.8916 36.3457H59.5708L60.7411 40.1707Z" fill="white"></path>
    <path d="M67.3005 38.1875C67.3005 37.791 66.9906 37.5392 66.3939 37.5392C65.8434 37.5392 65.1541 37.8144 64.7471 38.0569L64.1411 36.8768C64.1411 36.8768 65.1541 36.2051 66.4771 36.2051C67.7168 36.2051 68.8502 36.7835 68.8502 38.2388V41.8586H67.3005V41.3408C67.0137 41.7746 66.3939 42.0032 65.774 42.0032C64.6175 42.0032 63.8682 41.1729 63.8682 40.2726C63.8682 39.2277 64.6314 38.5794 65.848 38.5794H66.9212C67.1849 38.5794 67.3005 38.4581 67.3005 38.2528V38.1922V38.1875ZM67.3005 39.8808V39.4843C67.2034 39.5822 67.0368 39.6056 66.8241 39.6056H66.2412C65.7509 39.6056 65.4687 39.8201 65.4687 40.2073C65.4687 40.5945 65.7647 40.8557 66.2412 40.8557C66.8009 40.8557 67.3005 40.5665 67.3005 39.8808Z" fill="white"></path>
    <path d="M72.0832 34.2566V36.3464H73.2627V37.6664H72.0832V40.1527C72.0832 40.5025 72.3561 40.5492 72.5966 40.5492C72.9898 40.5492 73.3136 40.5118 73.3136 40.5118V41.8459C73.3136 41.8459 72.5642 41.9159 72.1109 41.9159C71.3338 41.9159 70.5381 41.7853 70.5381 40.6798V37.6618H69.6777V36.3417H70.5381V34.252H72.0878L72.0832 34.2566Z" fill="white"></path>
    <path d="M79.6885 39.5589H75.6224C75.7057 40.17 76.1821 40.6644 76.876 40.6644C77.3293 40.6644 77.7595 40.4732 77.9723 40.1L79.5821 40.2679C79.0918 41.4481 78.0695 41.9985 76.8529 41.9985C75.22 41.9985 73.9941 40.7857 73.9941 39.1018C73.9941 37.4179 75.1968 36.2051 76.8298 36.2051C78.3331 36.2051 79.6885 37.1893 79.6885 39.4983V39.5589ZM75.5854 38.5141H78.0278C77.9446 37.959 77.4774 37.5065 76.8251 37.5065C76.1729 37.5065 75.7057 37.9263 75.5854 38.5141Z" fill="white"></path>
    <path d="M81.252 26.7464C81.252 26.3359 81.3861 25.9907 81.6544 25.7108C81.9227 25.431 82.2465 25.291 82.6258 25.291C83.0051 25.291 83.3289 25.431 83.5972 25.7108C83.8655 25.9907 83.9997 26.3359 83.9997 26.7464C83.9997 27.1569 83.8655 27.502 83.5972 27.7866C83.3289 28.0664 83.0051 28.2111 82.6258 28.2111C82.2465 28.2111 81.9181 28.0711 81.6544 27.7866C81.3861 27.5067 81.252 27.1569 81.252 26.7464ZM81.4879 26.7464C81.4879 27.0915 81.5989 27.3808 81.8209 27.6186C82.043 27.8565 82.3113 27.9732 82.6304 27.9732C82.9496 27.9732 83.2133 27.8565 83.4353 27.6186C83.6574 27.3808 83.7684 27.0915 83.7684 26.7464C83.7684 26.4012 83.6574 26.1166 83.4353 25.8788C83.2133 25.6455 82.945 25.5289 82.6304 25.5289C82.3159 25.5289 82.043 25.6455 81.8209 25.8788C81.5989 26.112 81.4879 26.4012 81.4879 26.7464ZM82.3483 26.8956V27.5533H82.0615V25.8974H82.6027C82.797 25.8974 82.9543 25.9394 83.0653 26.0234C83.1763 26.1073 83.2318 26.2333 83.2318 26.3965C83.2318 26.4758 83.2087 26.5458 83.167 26.6111C83.1254 26.6717 83.0606 26.723 82.982 26.765C83.0653 26.7977 83.13 26.849 83.167 26.919C83.204 26.9889 83.2226 27.0729 83.2226 27.1708V27.2781C83.2226 27.3294 83.2225 27.3808 83.2272 27.4227C83.2272 27.4647 83.2411 27.502 83.2549 27.5254V27.558H82.9589C82.945 27.53 82.9404 27.4927 82.9357 27.4367C82.9311 27.3808 82.9357 27.3294 82.9357 27.2781V27.1708C82.9357 27.0776 82.9126 27.0076 82.871 26.9656C82.8294 26.9236 82.7553 26.9003 82.6582 26.9003H82.3529L82.3483 26.8956ZM82.3483 26.6437H82.6443C82.7276 26.6437 82.8016 26.6204 82.8571 26.5784C82.9172 26.5365 82.945 26.4805 82.945 26.4059C82.945 26.3126 82.9172 26.2426 82.8664 26.2053C82.8155 26.168 82.7276 26.1493 82.6027 26.1493H82.3483V26.6391V26.6437Z" fill="white"></path>
    <path fill-rule="evenodd" clip-rule="evenodd" d="M69.4607 7.92048C66.3151 2.36028 59.8945 0 53.9503 0C48.0062 0 41.6596 2.37894 38.5603 7.89249C38.3568 8.23767 38.1301 8.65749 38.1162 9.10529C38.1255 9.58574 38.2457 10.0149 38.5325 10.3274C38.8193 10.6446 39.268 11.0038 39.948 11.0551C41.2294 11.0038 41.6457 10.0988 41.6457 10.0988C44.6478 4.5853 48.1172 0.806975 53.9457 0.806975C59.7742 0.806975 63.4332 4.83718 66.4446 10.2061C66.5187 10.3787 67.1478 11.1017 68.3042 11.0084C69.4052 10.9665 69.9371 9.749 69.914 9.13794C69.9001 8.67148 69.6735 8.25633 69.456 7.92048H69.4607Z" fill="white"></path>
    <path d="M3.1363 15.5436C3.1363 14.3308 3.86717 13.2486 5.29192 13.2486H9.94548V11.1309H3.86717C1.65604 11.1309 0 13.2439 0 15.8421V23.6133C0 26.2068 1.65604 28.3246 3.86717 28.3246H9.94086V26.2068H5.29192C3.8718 26.2068 3.1363 25.1246 3.1363 23.9118V20.5207H9.37651V18.4263H3.1363V15.5389V15.5436Z" fill="white"></path>
    <path d="M20.7978 28.2673L17.9668 23.3881H17.9113L15.0248 28.2673H11.5508L16.2321 21.317L12.0272 14.8379H15.6122L18.1611 19.2273H18.2212L20.881 14.8379H24.1006L19.8125 21.1164L24.5493 28.2673H20.7978Z" fill="white"></path>
    <path d="M29.647 11.1309V23.9118C29.647 25.1246 30.3825 26.2068 31.8027 26.2068H36.4562V28.3246H30.3779C28.1668 28.3246 26.5107 26.2068 26.5107 23.6133V11.1309H29.6517H29.647Z" fill="white"></path>
    <path d="M41.4567 14.8379H38.4453V28.2673H41.4567V14.8379Z" fill="white"></path>
    <path d="M49.3525 16.4337C48.5384 16.4337 47.826 16.5596 47.3357 16.8302V26.3739C47.7289 26.5465 48.5152 26.6492 49.0796 26.6492C51.4526 26.6492 52.4148 24.6061 52.4148 21.4155C52.4148 18.6261 51.6192 16.4337 49.3525 16.4337ZM48.9547 28.515C46.9055 28.515 45.1847 28.0952 44.3428 27.5448V11.5312L47.331 10.9668V15.2116C47.974 14.913 48.9038 14.6658 50.1667 14.6658C53.2521 14.6658 55.4031 17.2313 55.4031 21.2429C55.4031 25.7489 53.1087 28.515 48.9547 28.515Z" fill="white"></path>
    <path d="M64.0862 16.8306C63.0731 16.4855 61.4726 16.5321 60.7787 16.9333V28.2682H57.7627V15.5619C59.5344 14.8342 61.5651 14.3911 64.6783 14.615L64.0862 16.8306Z" fill="white"></path>
    <path d="M69.5534 14.8379H66.542V28.2673H69.5534V14.8379Z" fill="white"></path>
    <path d="M75.9558 28.4915C74.2442 28.4915 72.7779 28.067 71.9082 27.5213L72.7779 25.5808C73.3237 25.9773 74.3229 26.3505 75.521 26.3505C76.8763 26.3505 77.9958 25.5528 77.9958 24.4567C77.9958 23.3605 77.1215 22.7634 75.6274 22.241C72.8565 21.2661 72.2875 19.8714 72.2875 18.4813C72.2875 16.3356 74.1332 14.5957 76.9318 14.5957C78.5601 14.5957 79.7813 14.9689 80.7296 15.5426L79.9155 17.3152C79.4806 16.9933 78.611 16.5688 77.5794 16.5688C76.2195 16.5688 75.2943 17.3898 75.2943 18.3367C75.2943 19.4329 76.386 19.9833 77.6627 20.4544C80.5122 21.4993 81.1644 22.8474 81.1644 24.4147C81.1644 26.607 79.1568 28.5009 75.9512 28.5009" fill="white"></path>
  </g>
  <defs>
    <clipPath id="clip0_1499_1202">
      <rect width="84" height="42" fill="white"></rect>
    </clipPath>
  </defs>
</svg>
